<svg width="22" height="21" viewBox="0 0 22 21" fill="none" xmlns="http://www.w3.org/2000/svg">
<path d="M11.0003 0.993912C12.2609 0.993912 13.4699 1.49468 14.3612 2.38606C15.2526 3.27743 15.7534 4.4864 15.7534 5.74699C15.7534 7.00759 15.2526 8.21656 14.3612 9.10793C13.4699 9.99931 12.2609 10.5001 11.0003 10.5001C9.73971 10.5001 8.53075 9.99931 7.63937 9.10793C6.74799 8.21656 6.24722 7.00759 6.24722 5.74699C6.24722 4.4864 6.74799 3.27743 7.63937 2.38606C8.53075 1.49468 9.73971 0.993912 11.0003 0.993912ZM11.0003 12.8766C16.2525 12.8766 20.5065 15.0036 20.5065 17.6297V19.0896C20.5065 19.5958 20.0961 20.0062 19.5898 20.0062H2.41081C1.90455 20.0062 1.49414 19.5958 1.49414 19.0896V17.6297C1.49414 15.0036 5.74815 12.8766 11.0003 12.8766Z" stroke="#2D2D2D" stroke-width="1.83333"/>
</svg>
