<svg width="22" height="22" viewBox="0 0 22 22" fill="none" xmlns="http://www.w3.org/2000/svg">
<path d="M9.43237 3.53828L1.6682 16.4999C1.50812 16.7772 1.42342 17.0915 1.42252 17.4116C1.42163 17.7317 1.50457 18.0465 1.66309 18.3246C1.82162 18.6027 2.0502 18.8345 2.3261 18.9968C2.602 19.1592 2.9156 19.2464 3.2357 19.2499H18.764C19.0841 19.2464 19.3977 19.1592 19.6736 18.9968C19.9495 18.8345 20.1781 18.6027 20.3366 18.3246C20.4952 18.0465 20.5781 17.7317 20.5772 17.4116C20.5763 17.0915 20.4916 16.7772 20.3315 16.4999L12.5674 3.53828C12.404 3.26887 12.1739 3.04614 11.8993 2.89155C11.6247 2.73697 11.315 2.65576 10.9999 2.65576C10.6848 2.65576 10.375 2.73697 10.1004 2.89155C9.82587 3.04614 9.59578 3.26887 9.43237 3.53828Z" fill="#A90000"/>
<path d="M11 8.25V12.375" stroke="white" stroke-width="1.2" stroke-linecap="round" stroke-linejoin="round"/>
<path d="M11 15.125H11.0089" stroke="white" stroke-width="1.33333" stroke-linecap="round" stroke-linejoin="round"/>
</svg>
