<svg width="18" height="18" viewBox="0 0 18 18" fill="none" xmlns="http://www.w3.org/2000/svg">
<path d="M9 2.25C12.7279 2.25 15.75 5.27208 15.75 9C15.75 12.7279 12.7279 15.75 9 15.75C5.27208 15.75 2.25 12.7279 2.25 9C2.25 5.27208 5.27208 2.25 9 2.25ZM9 4.5752C8.79289 4.5752 8.625 4.74309 8.625 4.9502V9C8.62505 9.14196 8.70507 9.27242 8.83203 9.33594L11.5322 10.6855L11.6035 10.7129C11.7719 10.7578 11.9541 10.6795 12.0352 10.5176C12.1161 10.3555 12.0688 10.1633 11.9316 10.0557L11.8682 10.0146L9.375 8.76758V4.9502C9.375 4.74309 9.20711 4.5752 9 4.5752Z" fill="#C6C6C6"/>
</svg>
