<svg width="32" height="32" viewBox="0 0 32 32" fill="none" xmlns="http://www.w3.org/2000/svg">
<rect x="2" y="2" width="28" height="28" rx="14" fill="#3168AF"/>
<path d="M13.3002 18.9097L10.3763 15.9878C10.2187 15.8304 10.005 15.7419 9.78222 15.7419C9.5594 15.7419 9.34571 15.8304 9.18816 15.9878C9.0306 16.1453 8.94209 16.3588 8.94209 16.5815C8.94209 16.6917 8.96382 16.8009 9.00604 16.9027C9.04826 17.0046 9.11014 17.0972 9.18816 17.1751L12.7104 20.6948C13.039 21.0232 13.5699 21.0232 13.8985 20.6948L22.8136 11.7861C22.9712 11.6286 23.0597 11.4151 23.0597 11.1924C23.0597 10.9698 22.9712 10.7562 22.8136 10.5988C22.6561 10.4414 22.4424 10.3529 22.2196 10.3529C21.9968 10.3529 21.7831 10.4414 21.6255 10.5988L13.3002 18.9097Z" fill="white"/>
</svg>
