<svg width="24" height="24" viewBox="0 0 24 24" fill="none" xmlns="http://www.w3.org/2000/svg">
<path d="M16.018 4.75429C16.23 4.54236 16.4816 4.37424 16.7585 4.25955C17.0354 4.14485 17.3322 4.08582 17.6319 4.08582C17.9316 4.08582 18.2284 4.14485 18.5053 4.25955C18.7822 4.37424 19.0338 4.54236 19.2457 4.75429C19.4577 4.96622 19.6258 5.21783 19.7405 5.49473C19.8552 5.77163 19.9142 6.06842 19.9142 6.36814C19.9142 6.66786 19.8552 6.96464 19.7405 7.24154C19.6258 7.51845 19.4577 7.77005 19.2457 7.98198L8.35229 18.8754L3.91421 20.0858L5.1246 15.6477L16.018 4.75429Z" stroke="#555555" stroke-width="1.6" stroke-linecap="round" stroke-linejoin="round"/>
</svg>
