<svg width="32" height="32" viewBox="0 0 32 32" fill="none" xmlns="http://www.w3.org/2000/svg">
<rect width="32" height="32" rx="5.33333" fill="#F8F8F8"/>
<path d="M16.0003 26.0004C21.5232 26.0004 26.0003 21.5232 26.0003 16.0004C26.0003 10.4775 21.5232 6.00037 16.0003 6.00037C10.4775 6.00037 6.00034 10.4775 6.00034 16.0004C6.00034 21.5232 10.4775 26.0004 16.0003 26.0004Z" stroke="#1C711C" stroke-width="1.2" stroke-linecap="round" stroke-linejoin="round"/>
<path d="M6.00034 16.0004H26.0003" stroke="#1C711C" stroke-width="1.2" stroke-linecap="round" stroke-linejoin="round"/>
<path d="M16.0004 6.00037C18.7796 8.73872 20.3591 12.2924 20.4449 16.0004C20.3591 19.7083 18.7796 23.262 16.0004 26.0004C13.2212 23.262 11.6418 19.7083 11.556 16.0004C11.6418 12.2924 13.2212 8.73872 16.0004 6.00037Z" stroke="#1C711C" stroke-width="1.2" stroke-linecap="round" stroke-linejoin="round"/>
</svg>
