<svg width="32" height="32" viewBox="0 0 32 32" fill="none" xmlns="http://www.w3.org/2000/svg">
<rect width="32" height="32" rx="5.33333" fill="white"/>
<g clip-path="url(#clip0_2576_74907)">
<path d="M6.3331 6.33337L26.3331 26.3334" stroke="#8E8E8E" stroke-width="1.33333" stroke-linecap="round"/>
<path d="M9.82108 9.55786C8.04191 11.2682 6.93251 13.6706 6.9324 16.3333C6.9324 21.5246 11.1415 25.7334 16.3328 25.7336C18.9956 25.7336 21.3977 24.6242 23.1082 22.845L23.9558 23.6926C22.0283 25.6888 19.327 26.9329 16.3328 26.9329C10.4788 26.9326 5.73319 22.1873 5.73318 16.3333C5.73329 13.3392 6.97639 10.6367 8.97244 8.70923L9.82108 9.55786ZM16.3328 5.73364C22.1869 5.73364 26.9322 10.4792 26.9324 16.3333C26.9324 18.7608 26.1146 20.9965 24.742 22.7834L23.8865 21.928C25.0463 20.3646 25.7332 18.4293 25.7332 16.3333C25.733 11.142 21.5241 6.93286 16.3328 6.93286C14.2369 6.93295 12.3013 7.61973 10.7381 8.77954L9.8826 7.92407C11.6695 6.55142 13.9053 5.73373 16.3328 5.73364Z" fill="#8E8E8E"/>
<path d="M13.0922 12.9257C12.7666 14.0324 12.5833 15.1758 12.5551 16.3339C12.6356 19.6413 13.9668 22.8304 16.3334 25.3769C17.9364 23.6521 19.0612 21.6317 19.6469 19.4804L20.7182 20.5517C19.9595 22.8652 18.6276 25.009 16.8012 26.8085C16.5418 27.0641 16.1252 27.0639 15.8657 26.8085C13.0609 24.0449 11.4177 20.4715 11.2358 16.7138L11.2231 16.3496C11.2228 16.3394 11.2228 16.3285 11.2231 16.3183L11.2358 15.954C11.3035 14.5546 11.5731 13.1802 12.0307 11.8642L13.0922 12.9257ZM15.9701 5.77533C16.2273 5.60774 16.5742 5.63565 16.8012 5.85932C19.6964 8.71214 21.3546 12.4277 21.4448 16.3183V16.3496C21.4235 17.2684 21.3124 18.1771 21.1205 19.0673L19.9711 17.9179C20.0479 17.3942 20.0978 16.8659 20.1108 16.3339C20.0303 13.0264 18.7003 9.83664 16.3334 7.28998C15.1487 8.5647 14.2231 10.0002 13.5844 11.5312L12.5727 10.5195C13.3565 8.81627 14.467 7.23742 15.8657 5.85932L15.9701 5.77533Z" fill="#8E8E8E"/>
<path d="M17.1675 17.001H6.3335C5.96541 17.001 5.66668 16.702 5.6665 16.334C5.6665 15.9658 5.96531 15.667 6.3335 15.667H15.8335L17.1675 17.001ZM26.4683 15.6807C26.7717 15.7431 27.0005 16.0121 27.0005 16.334C27.0003 16.6558 26.7716 16.9249 26.4683 16.9873L26.3335 17.001H19.0542L17.7202 15.667H26.3335L26.4683 15.6807Z" fill="#8E8E8E"/>
</g>
<defs>
<clipPath id="clip0_2576_74907">
<rect x="2.66675" y="2.66699" width="26.6667" height="26.6667" rx="5.33333" fill="white"/>
</clipPath>
</defs>
</svg>
