<svg width="24" height="24" viewBox="0 0 24 24" fill="none" xmlns="http://www.w3.org/2000/svg">
<path d="M4.94336 21.3333C4.46997 21.3333 4.08622 20.9495 4.08622 20.4761V9.31857C4.08622 9.04813 4.21384 8.79355 4.43054 8.63175L11.9067 3.04953C12.2109 2.82242 12.6282 2.82242 12.9324 3.04953L20.4086 8.63175C20.6253 8.79355 20.7529 9.04813 20.7529 9.31856V20.4761C20.7529 20.9495 20.3691 21.3333 19.8957 21.3333H15.61C15.1366 21.3333 14.7529 20.9495 14.7529 20.4761V14.9312C14.7529 14.4578 14.3691 14.074 13.8957 14.074H10.9434C10.47 14.074 10.0862 14.4578 10.0862 14.9312V20.4761C10.0862 20.9495 9.70246 21.3333 9.22907 21.3333H4.94336Z" stroke="white" stroke-width="1.6"/>
</svg>
