<svg width="32" height="32" viewBox="0 0 32 32" fill="none" xmlns="http://www.w3.org/2000/svg">
<path d="M16.0003 2.66663C18.8292 2.66663 21.542 3.81625 23.5423 5.86194C25.5427 7.90777 26.6673 10.6826 26.6673 13.5758C26.6673 22.0607 16.0003 29.3336 16.0003 29.3336C16.0003 29.3336 5.33333 22.0607 5.33333 13.5758C5.33335 10.6826 6.45796 7.90777 8.45833 5.86194C10.4587 3.81625 13.1715 2.66663 16.0003 2.66663ZM16.0003 10.6666C14.5276 10.6666 13.3333 11.8609 13.3333 13.3336C13.3334 14.8063 14.5276 16.0006 16.0003 16.0006C17.473 16.0006 18.6672 14.8063 18.6673 13.3336C18.6673 11.8609 17.4731 10.6666 16.0003 10.6666Z" fill="#C6C6C6"/>
</svg>
