<svg width="24" height="24" viewBox="0 0 24 24" fill="none" xmlns="http://www.w3.org/2000/svg">
<path d="M12 3V2.5V3ZM17.0908 5.15723L17.4483 4.80767L17.4483 4.80767L17.0908 5.15723ZM19.2002 10.3633H19.7002V10.3633L19.2002 10.3633ZM12 21L11.7183 21.4131C11.8882 21.529 12.1118 21.529 12.2817 21.4131L12 21ZM4.7998 10.3633L4.2998 10.3633V10.3633H4.7998ZM6.90918 5.15723L6.55168 4.80767L6.55167 4.80767L6.90918 5.15723ZM12 8.40039V7.90039V8.40039ZM10.2002 10.2002H9.7002V10.2002L10.2002 10.2002ZM12 12V12.5V12ZM13.7998 10.2002L14.2998 10.2002V10.2002H13.7998ZM12 3V3.5C13.7732 3.5 15.4758 4.22073 16.7333 5.50679L17.0908 5.15723L17.4483 4.80767C16.0053 3.33183 14.0459 2.5 12 2.5V3ZM17.0908 5.15723L16.7333 5.50678C17.9911 6.79316 18.7001 8.53966 18.7002 10.3633L19.2002 10.3633L19.7002 10.3633C19.7001 8.28131 18.8909 6.28302 17.4483 4.80767L17.0908 5.15723ZM19.2002 10.3633H18.7002C18.7002 13.0298 17.013 15.5682 15.2338 17.489C13.4705 19.3927 11.7052 20.5959 11.7183 20.5869L12 21L12.2817 21.4131C12.2964 21.4031 14.1311 20.1512 15.9675 18.1685C17.7881 16.2029 19.7002 13.4234 19.7002 10.3633H19.2002ZM12 21C12.2817 20.5869 12.2818 20.5869 12.2818 20.587C12.2818 20.587 12.2818 20.587 12.2818 20.587C12.2817 20.5869 12.2815 20.5868 12.2812 20.5866C12.2807 20.5862 12.2797 20.5855 12.2782 20.5845C12.2754 20.5826 12.2708 20.5794 12.2646 20.5751C12.2522 20.5665 12.2332 20.5532 12.2082 20.5355C12.158 20.4999 12.0833 20.4463 11.9877 20.3757C11.7964 20.2344 11.5214 20.0251 11.1907 19.7557C10.5285 19.2164 9.64682 18.4397 8.76671 17.4896C6.98739 15.5687 5.2998 13.0301 5.2998 10.3633H4.7998H4.2998C4.2998 13.4237 6.21232 16.2035 8.03309 18.1691C8.95303 19.1623 9.87137 19.9709 10.5592 20.5311C10.9035 20.8115 11.1911 21.0305 11.3935 21.18C11.4948 21.2548 11.5748 21.3123 11.6301 21.3515C11.6578 21.3711 11.6792 21.3861 11.6941 21.3964C11.7015 21.4015 11.7073 21.4055 11.7113 21.4083C11.7134 21.4097 11.715 21.4108 11.7161 21.4116C11.7167 21.412 11.7172 21.4123 11.7176 21.4126C11.7177 21.4127 11.7179 21.4128 11.718 21.4129C11.7182 21.413 11.7183 21.4131 12 21ZM4.7998 10.3633L5.2998 10.3633C5.29989 8.53966 6.00893 6.79316 7.26669 5.50678L6.90918 5.15723L6.55167 4.80767C5.10915 6.28302 4.2999 8.28131 4.2998 10.3633L4.7998 10.3633ZM6.90918 5.15723L7.26668 5.50679C8.52416 4.22073 10.2268 3.5 12 3.5V3V2.5C9.95405 2.5 7.99472 3.33183 6.55168 4.80767L6.90918 5.15723ZM12 8.40039V7.90039C10.7297 7.90039 9.7002 8.92994 9.7002 10.2002H10.2002H10.7002C10.7002 9.48222 11.282 8.90039 12 8.90039V8.40039ZM10.2002 10.2002L9.7002 10.2002C9.70033 11.4703 10.7298 12.5 12 12.5V12V11.5C11.2821 11.5 10.7003 10.9181 10.7002 10.2001L10.2002 10.2002ZM12 12V12.5C13.2702 12.5 14.2997 11.4703 14.2998 10.2002L13.7998 10.2002L13.2998 10.2001C13.2997 10.9181 12.7179 11.5 12 11.5V12ZM13.7998 10.2002H14.2998C14.2998 8.92994 13.2703 7.90039 12 7.90039V8.40039V8.90039C12.718 8.90039 13.2998 9.48223 13.2998 10.2002H13.7998Z" fill="#555555"/>
</svg>
