<svg width="24" height="24" viewBox="0 0 24 24" fill="none" xmlns="http://www.w3.org/2000/svg">
<path d="M20.0879 12.5442L21.4784 13.7825C21.7352 13.9967 21.9067 14.2959 21.962 14.6257C22.0174 14.9555 21.9527 15.2943 21.7799 15.5806L20.1032 18.4447C19.9732 18.664 19.7874 18.8449 19.5649 18.9692C19.3397 19.0938 19.0869 19.1599 18.8296 19.1615C18.67 19.1625 18.5112 19.1386 18.3589 19.0908L16.5792 18.5032C16.2675 18.7031 15.9435 18.8821 15.6071 19.04L15.2333 20.8443C15.1642 21.1762 14.9794 21.4728 14.7119 21.6811C14.441 21.8931 14.1052 22.0051 13.7613 21.9979H10.2896C9.94564 22.0051 9.60983 21.8931 9.33896 21.6811C9.07205 21.4725 8.88782 21.176 8.81905 20.8443L8.44373 19.04C8.11179 18.88 7.78973 18.7002 7.47928 18.5016L5.69344 19.0908C5.54117 19.1386 5.38237 19.1625 5.22275 19.1615C4.96596 19.1597 4.71372 19.0936 4.48903 18.9692C4.26667 18.8453 4.08096 18.6649 3.95067 18.4463L2.21404 15.5806C2.0335 15.2917 1.96452 14.9469 2.02002 14.6108C2.07552 14.2746 2.2517 13.9703 2.51553 13.7548L3.90452 11.9997V11.4552L2.51399 10.2169C2.25721 10.0026 2.08564 9.7035 2.03034 9.37366C1.97503 9.04382 2.03966 8.70508 2.21251 8.41877L3.94913 5.55465C4.07921 5.3354 4.26494 5.15445 4.4875 5.03012C4.71218 4.90579 4.96443 4.83969 5.22121 4.83785C5.37939 4.82787 5.53816 4.8424 5.6919 4.88092L7.44237 5.4962C7.75513 5.29623 8.07918 5.11729 8.41451 4.95937L8.78983 3.15506C8.85859 2.82338 9.04283 2.52686 9.30973 2.31829C9.5806 2.10624 9.91642 1.9943 10.2603 2.00142H13.7028C14.0467 1.9943 14.3826 2.10624 14.6534 2.31829C14.9226 2.52902 15.1072 2.82589 15.1733 3.15506L15.5487 4.95937C15.8819 5.11831 16.2034 5.29777 16.5131 5.49773L18.3005 4.91014C18.4989 4.84561 18.7085 4.82296 18.916 4.84361C19.1236 4.86426 19.3247 4.92777 19.5064 5.03012C19.7295 5.15626 19.914 5.33776 20.0448 5.55311L21.7799 8.41877C21.9628 8.70521 22.0353 9.04845 21.9838 9.38442C21.9323 9.72039 21.7603 10.0261 21.4999 10.2446L20.0879 11.4475V12.5442Z" stroke="white" stroke-width="1.6"/>
<path d="M15.8457 12C15.8457 13.0199 15.4405 13.998 14.7194 14.7192C13.9982 15.4404 13.0201 15.8455 12.0002 15.8455C10.9803 15.8455 10.0022 15.4404 9.28104 14.7192C8.55987 13.998 8.15472 13.0199 8.15472 12C8.15472 10.9801 8.55987 10.002 9.28104 9.28086C10.0022 8.55969 10.9803 8.15454 12.0002 8.15454C13.0201 8.15454 13.9982 8.55969 14.7194 9.28086C15.4405 10.002 15.8457 10.9801 15.8457 12Z" stroke="white" stroke-width="1.6"/>
</svg>
