<svg width="24" height="24" viewBox="0 0 24 24" fill="none" xmlns="http://www.w3.org/2000/svg">
<path d="M3.90332 6.60217H5.70258H20.0967" stroke="#555555" stroke-width="1.6" stroke-linecap="round" stroke-linejoin="round"/>
<path d="M18.2974 6.60219V19.197C18.2974 19.6742 18.1079 20.1319 17.7704 20.4693C17.433 20.8067 16.9754 20.9963 16.4982 20.9963H7.50185C7.02465 20.9963 6.567 20.8067 6.22957 20.4693C5.89215 20.1319 5.70258 19.6742 5.70258 19.197V6.60219M8.40148 6.60219V4.80292C8.40148 4.32573 8.59104 3.86808 8.92847 3.53065C9.2659 3.19323 9.72354 3.00366 10.2007 3.00366H13.7993C14.2765 3.00366 14.7341 3.19323 15.0715 3.53065C15.409 3.86808 15.5985 4.32573 15.5985 4.80292V6.60219" stroke="#555555" stroke-width="1.6" stroke-linecap="round" stroke-linejoin="round"/>
<path d="M10.2007 11.1003V16.4981" stroke="#555555" stroke-width="1.6" stroke-linecap="round" stroke-linejoin="round"/>
<path d="M13.7993 11.1003V16.4981" stroke="#555555" stroke-width="1.6" stroke-linecap="round" stroke-linejoin="round"/>
</svg>
