<svg width="24" height="25" viewBox="0 0 24 25" fill="none" xmlns="http://www.w3.org/2000/svg">
<path d="M3.90332 6.89697H5.70258H20.0967" stroke="#830000" stroke-width="1.6" stroke-linecap="round" stroke-linejoin="round"/>
<path d="M18.2974 6.89699V19.4918C18.2974 19.969 18.1079 20.4267 17.7704 20.7641C17.433 21.1015 16.9753 21.2911 16.4982 21.2911H7.50184C7.02465 21.2911 6.567 21.1015 6.22957 20.7641C5.89215 20.4267 5.70258 19.969 5.70258 19.4918V6.89699M8.40148 6.89699V5.09772C8.40148 4.62053 8.59104 4.16288 8.92847 3.82545C9.26589 3.48803 9.72354 3.29846 10.2007 3.29846H13.7993C14.2765 3.29846 14.7341 3.48803 15.0715 3.82545C15.409 4.16288 15.5985 4.62053 15.5985 5.09772V6.89699" stroke="#830000" stroke-width="1.6" stroke-linecap="round" stroke-linejoin="round"/>
<path d="M10.2007 11.3951V16.7929" stroke="#830000" stroke-width="1.6" stroke-linecap="round" stroke-linejoin="round"/>
<path d="M13.7993 11.3951V16.7929" stroke="#830000" stroke-width="1.6" stroke-linecap="round" stroke-linejoin="round"/>
</svg>
